<mxfile host="app.diagrams.net" modified="2022-01-10T06:56:20.853Z" agent="5.0 (Windows NT 10.0; Win64; x64) AppleWebKit/537.36 (KHTML, like Gecko) Chrome/96.0.4664.110 Safari/537.36 OPR/82.0.4227.50" etag="CoSn6BwuHyTgxr7VaoY3" version="15.9.6" type="github">
  <diagram id="357403ioUBvTrhxE2t-b" name="Page-1">
    <mxGraphModel dx="659" dy="779" grid="1" gridSize="10" guides="1" tooltips="1" connect="1" arrows="1" fold="1" page="1" pageScale="1" pageWidth="827" pageHeight="1169" math="0" shadow="0">
      <root>
        <mxCell id="0" />
        <mxCell id="1" parent="0" />
        <mxCell id="ArEESVEo5ZyPmRtwXI0_-1" style="edgeStyle=orthogonalEdgeStyle;rounded=0;orthogonalLoop=1;jettySize=auto;html=1;strokeWidth=2;endArrow=none;endFill=0;exitX=0;exitY=0.5;exitDx=0;exitDy=0;" parent="1" source="ArEESVEo5ZyPmRtwXI0_-31" target="ArEESVEo5ZyPmRtwXI0_-6" edge="1">
          <mxGeometry relative="1" as="geometry">
            <mxPoint x="460" y="200" as="sourcePoint" />
          </mxGeometry>
        </mxCell>
        <mxCell id="ArEESVEo5ZyPmRtwXI0_-2" style="edgeStyle=orthogonalEdgeStyle;rounded=0;orthogonalLoop=1;jettySize=auto;html=1;exitX=0;exitY=0.25;exitDx=0;exitDy=0;endArrow=none;endFill=0;strokeWidth=2;entryX=1.017;entryY=0.392;entryDx=0;entryDy=0;entryPerimeter=0;" parent="1" source="ArEESVEo5ZyPmRtwXI0_-31" target="ArEESVEo5ZyPmRtwXI0_-6" edge="1">
          <mxGeometry relative="1" as="geometry">
            <mxPoint x="430" y="150" as="targetPoint" />
            <mxPoint x="449.99" y="100" as="sourcePoint" />
          </mxGeometry>
        </mxCell>
        <mxCell id="ArEESVEo5ZyPmRtwXI0_-3" style="edgeStyle=orthogonalEdgeStyle;rounded=0;orthogonalLoop=1;jettySize=auto;html=1;endArrow=none;endFill=0;strokeWidth=2;entryX=0.75;entryY=1;entryDx=0;entryDy=0;exitX=0;exitY=0.75;exitDx=0;exitDy=0;" parent="1" source="ArEESVEo5ZyPmRtwXI0_-31" target="ArEESVEo5ZyPmRtwXI0_-19" edge="1">
          <mxGeometry relative="1" as="geometry">
            <mxPoint x="450" y="240" as="sourcePoint" />
            <Array as="points">
              <mxPoint x="363" y="255" />
              <mxPoint x="363" y="220" />
              <mxPoint x="275" y="220" />
            </Array>
          </mxGeometry>
        </mxCell>
        <mxCell id="ArEESVEo5ZyPmRtwXI0_-4" style="edgeStyle=orthogonalEdgeStyle;rounded=0;orthogonalLoop=1;jettySize=auto;html=1;entryX=0.5;entryY=0;entryDx=0;entryDy=0;endArrow=none;endFill=0;strokeWidth=2;exitX=0.5;exitY=1;exitDx=0;exitDy=0;" parent="1" source="ArEESVEo5ZyPmRtwXI0_-31" target="ArEESVEo5ZyPmRtwXI0_-26" edge="1">
          <mxGeometry relative="1" as="geometry">
            <mxPoint x="521.3" y="440" as="sourcePoint" />
          </mxGeometry>
        </mxCell>
        <mxCell id="ArEESVEo5ZyPmRtwXI0_-5" value="" style="group" parent="1" vertex="1" connectable="0">
          <mxGeometry x="155" y="60" width="145" height="240" as="geometry" />
        </mxCell>
        <mxCell id="ArEESVEo5ZyPmRtwXI0_-6" value="" style="rounded=0;whiteSpace=wrap;html=1;" parent="ArEESVEo5ZyPmRtwXI0_-5" vertex="1">
          <mxGeometry width="120" height="240" as="geometry" />
        </mxCell>
        <mxCell id="ArEESVEo5ZyPmRtwXI0_-7" value="" style="group" parent="ArEESVEo5ZyPmRtwXI0_-5" vertex="1" connectable="0">
          <mxGeometry x="20" y="20" width="80" height="80" as="geometry" />
        </mxCell>
        <mxCell id="ArEESVEo5ZyPmRtwXI0_-8" value="" style="ellipse;whiteSpace=wrap;html=1;aspect=fixed;" parent="ArEESVEo5ZyPmRtwXI0_-7" vertex="1">
          <mxGeometry width="80" height="80" as="geometry" />
        </mxCell>
        <mxCell id="ArEESVEo5ZyPmRtwXI0_-9" value="" style="verticalLabelPosition=bottom;outlineConnect=0;align=center;dashed=0;html=1;verticalAlign=top;shape=mxgraph.pid.misc.fan_2;" parent="ArEESVEo5ZyPmRtwXI0_-7" vertex="1">
          <mxGeometry x="11" y="36" width="58" height="8" as="geometry" />
        </mxCell>
        <mxCell id="ArEESVEo5ZyPmRtwXI0_-10" value="" style="verticalLabelPosition=bottom;outlineConnect=0;align=center;dashed=0;html=1;verticalAlign=top;shape=mxgraph.pid.misc.fan_2;rotation=-240;" parent="ArEESVEo5ZyPmRtwXI0_-7" vertex="1">
          <mxGeometry x="11" y="36" width="58" height="8" as="geometry" />
        </mxCell>
        <mxCell id="ArEESVEo5ZyPmRtwXI0_-11" value="" style="verticalLabelPosition=bottom;outlineConnect=0;align=center;dashed=0;html=1;verticalAlign=top;shape=mxgraph.pid.misc.fan_2;rotation=-125;" parent="ArEESVEo5ZyPmRtwXI0_-7" vertex="1">
          <mxGeometry x="11" y="36" width="58" height="8" as="geometry" />
        </mxCell>
        <mxCell id="ArEESVEo5ZyPmRtwXI0_-12" value="" style="group" parent="ArEESVEo5ZyPmRtwXI0_-5" vertex="1" connectable="0">
          <mxGeometry x="20" y="140" width="80" height="80" as="geometry" />
        </mxCell>
        <mxCell id="ArEESVEo5ZyPmRtwXI0_-13" value="" style="ellipse;whiteSpace=wrap;html=1;aspect=fixed;" parent="ArEESVEo5ZyPmRtwXI0_-12" vertex="1">
          <mxGeometry width="80" height="80" as="geometry" />
        </mxCell>
        <mxCell id="ArEESVEo5ZyPmRtwXI0_-14" value="" style="verticalLabelPosition=bottom;outlineConnect=0;align=center;dashed=0;html=1;verticalAlign=top;shape=mxgraph.pid.misc.fan_2;" parent="ArEESVEo5ZyPmRtwXI0_-12" vertex="1">
          <mxGeometry x="11" y="36" width="58" height="8" as="geometry" />
        </mxCell>
        <mxCell id="ArEESVEo5ZyPmRtwXI0_-15" value="" style="verticalLabelPosition=bottom;outlineConnect=0;align=center;dashed=0;html=1;verticalAlign=top;shape=mxgraph.pid.misc.fan_2;rotation=-240;" parent="ArEESVEo5ZyPmRtwXI0_-12" vertex="1">
          <mxGeometry x="11" y="36" width="58" height="8" as="geometry" />
        </mxCell>
        <mxCell id="ArEESVEo5ZyPmRtwXI0_-16" value="" style="verticalLabelPosition=bottom;outlineConnect=0;align=center;dashed=0;html=1;verticalAlign=top;shape=mxgraph.pid.misc.fan_2;rotation=-125;" parent="ArEESVEo5ZyPmRtwXI0_-12" vertex="1">
          <mxGeometry x="11" y="36" width="58" height="8" as="geometry" />
        </mxCell>
        <mxCell id="ArEESVEo5ZyPmRtwXI0_-17" value="GND" style="text;html=1;strokeColor=none;fillColor=none;align=center;verticalAlign=middle;whiteSpace=wrap;rounded=0;fontSize=13;" parent="ArEESVEo5ZyPmRtwXI0_-5" vertex="1">
          <mxGeometry x="65" y="105" width="60" height="30" as="geometry" />
        </mxCell>
        <mxCell id="ArEESVEo5ZyPmRtwXI0_-18" value="V" style="text;html=1;strokeColor=none;fillColor=none;align=center;verticalAlign=middle;whiteSpace=wrap;rounded=0;fontSize=13;" parent="ArEESVEo5ZyPmRtwXI0_-5" vertex="1">
          <mxGeometry x="75" y="75" width="60" height="30" as="geometry" />
        </mxCell>
        <mxCell id="ArEESVEo5ZyPmRtwXI0_-19" value="L" style="text;html=1;strokeColor=none;fillColor=none;align=center;verticalAlign=middle;whiteSpace=wrap;rounded=0;fontSize=13;" parent="ArEESVEo5ZyPmRtwXI0_-5" vertex="1">
          <mxGeometry x="75" y="135" width="60" height="30" as="geometry" />
        </mxCell>
        <mxCell id="ArEESVEo5ZyPmRtwXI0_-20" value="" style="group;labelPosition=center;verticalLabelPosition=middle;align=center;verticalAlign=middle;" parent="1" vertex="1" connectable="0">
          <mxGeometry x="349" y="600" width="65" height="60" as="geometry" />
        </mxCell>
        <mxCell id="ArEESVEo5ZyPmRtwXI0_-21" value="&lt;font style=&quot;font-size: 13px&quot;&gt;220Ð’&lt;/font&gt;" style="shape=or;whiteSpace=wrap;html=1;rotation=-90;" parent="ArEESVEo5ZyPmRtwXI0_-20" vertex="1">
          <mxGeometry x="12.5" y="10" width="40" height="65" as="geometry" />
        </mxCell>
        <mxCell id="ArEESVEo5ZyPmRtwXI0_-22" value="" style="endArrow=none;html=1;rounded=0;strokeWidth=2;exitX=1;exitY=0.5;exitDx=0;exitDy=0;exitPerimeter=0;labelPosition=left;verticalLabelPosition=bottom;align=right;verticalAlign=top;textDirection=ltr;" parent="ArEESVEo5ZyPmRtwXI0_-20" source="ArEESVEo5ZyPmRtwXI0_-21" edge="1">
          <mxGeometry width="50" height="50" relative="1" as="geometry">
            <mxPoint x="145" y="10" as="sourcePoint" />
            <mxPoint x="33" as="targetPoint" />
            <Array as="points" />
          </mxGeometry>
        </mxCell>
        <mxCell id="ArEESVEo5ZyPmRtwXI0_-23" value="connector" style="rounded=0;whiteSpace=wrap;html=1;" parent="1" vertex="1">
          <mxGeometry x="155" y="400" width="120" height="60" as="geometry" />
        </mxCell>
        <mxCell id="ArEESVEo5ZyPmRtwXI0_-24" style="rounded=0;orthogonalLoop=1;jettySize=auto;html=1;exitX=0.25;exitY=1;exitDx=0;exitDy=0;entryX=0.25;entryY=0;entryDx=0;entryDy=0;endArrow=oval;endFill=1;strokeWidth=2;startArrow=oval;startFill=1;" parent="1" source="ArEESVEo5ZyPmRtwXI0_-6" target="ArEESVEo5ZyPmRtwXI0_-23" edge="1">
          <mxGeometry relative="1" as="geometry" />
        </mxCell>
        <mxCell id="ArEESVEo5ZyPmRtwXI0_-25" style="edgeStyle=orthogonalEdgeStyle;rounded=0;orthogonalLoop=1;jettySize=auto;html=1;exitX=0.75;exitY=1;exitDx=0;exitDy=0;entryX=0.75;entryY=0;entryDx=0;entryDy=0;endArrow=oval;endFill=1;strokeWidth=2;startArrow=oval;startFill=1;" parent="1" source="ArEESVEo5ZyPmRtwXI0_-6" target="ArEESVEo5ZyPmRtwXI0_-23" edge="1">
          <mxGeometry relative="1" as="geometry" />
        </mxCell>
        <mxCell id="ArEESVEo5ZyPmRtwXI0_-26" value="5 V&lt;br&gt;2.5 A" style="rounded=0;whiteSpace=wrap;html=1;" parent="1" vertex="1">
          <mxGeometry x="481.87" y="470" width="78.75" height="60" as="geometry" />
        </mxCell>
        <mxCell id="ArEESVEo5ZyPmRtwXI0_-27" style="edgeStyle=orthogonalEdgeStyle;rounded=0;orthogonalLoop=1;jettySize=auto;html=1;exitX=0.5;exitY=1;exitDx=0;exitDy=0;entryX=0;entryY=0.25;entryDx=0;entryDy=0;entryPerimeter=0;endArrow=none;endFill=0;strokeWidth=2;" parent="1" source="ArEESVEo5ZyPmRtwXI0_-28" target="ArEESVEo5ZyPmRtwXI0_-21" edge="1">
          <mxGeometry relative="1" as="geometry" />
        </mxCell>
        <mxCell id="ArEESVEo5ZyPmRtwXI0_-28" value="12 V&lt;br&gt;5 A" style="rounded=0;whiteSpace=wrap;html=1;" parent="1" vertex="1">
          <mxGeometry x="175.62" y="525" width="78.75" height="60" as="geometry" />
        </mxCell>
        <mxCell id="ArEESVEo5ZyPmRtwXI0_-29" style="edgeStyle=orthogonalEdgeStyle;rounded=0;orthogonalLoop=1;jettySize=auto;html=1;exitX=0;exitY=0.75;exitDx=0;exitDy=0;exitPerimeter=0;entryX=0.5;entryY=1;entryDx=0;entryDy=0;endArrow=none;endFill=0;strokeWidth=2;" parent="1" source="ArEESVEo5ZyPmRtwXI0_-21" target="ArEESVEo5ZyPmRtwXI0_-26" edge="1">
          <mxGeometry relative="1" as="geometry" />
        </mxCell>
        <mxCell id="ArEESVEo5ZyPmRtwXI0_-30" style="edgeStyle=orthogonalEdgeStyle;rounded=0;orthogonalLoop=1;jettySize=auto;html=1;exitX=0.5;exitY=1;exitDx=0;exitDy=0;entryX=0.5;entryY=0;entryDx=0;entryDy=0;endArrow=none;endFill=0;strokeWidth=2;startArrow=oval;startFill=1;" parent="1" source="ArEESVEo5ZyPmRtwXI0_-23" target="ArEESVEo5ZyPmRtwXI0_-28" edge="1">
          <mxGeometry relative="1" as="geometry" />
        </mxCell>
        <mxCell id="ArEESVEo5ZyPmRtwXI0_-31" value="RPI" style="rounded=0;whiteSpace=wrap;html=1;fontSize=13;labelPosition=center;verticalLabelPosition=middle;align=right;verticalAlign=middle;textDirection=ltr;spacingTop=0;spacingLeft=0;" parent="1" vertex="1">
          <mxGeometry x="461.25" y="65" width="120" height="260" as="geometry" />
        </mxCell>
        <mxCell id="ArEESVEo5ZyPmRtwXI0_-32" value="GND" style="text;html=1;strokeColor=none;fillColor=none;align=center;verticalAlign=middle;whiteSpace=wrap;rounded=0;fontSize=13;" parent="1" vertex="1">
          <mxGeometry x="450" y="180" width="60" height="30" as="geometry" />
        </mxCell>
        <mxCell id="ArEESVEo5ZyPmRtwXI0_-33" value="GPIO4" style="text;html=1;strokeColor=none;fillColor=none;align=center;verticalAlign=middle;whiteSpace=wrap;rounded=0;fontSize=13;" parent="1" vertex="1">
          <mxGeometry x="461.25" y="240" width="60" height="30" as="geometry" />
        </mxCell>
        <mxCell id="ArEESVEo5ZyPmRtwXI0_-34" value="5 V" style="text;html=1;strokeColor=none;fillColor=none;align=center;verticalAlign=middle;whiteSpace=wrap;rounded=0;fontSize=13;" parent="1" vertex="1">
          <mxGeometry x="450" y="110" width="60" height="30" as="geometry" />
        </mxCell>
        <mxCell id="ArEESVEo5ZyPmRtwXI0_-35" value="R1" style="pointerEvents=1;verticalLabelPosition=bottom;shadow=0;dashed=0;align=center;html=1;verticalAlign=top;shape=mxgraph.electrical.resistors.resistor_1;fontSize=13;" parent="1" vertex="1">
          <mxGeometry x="390" y="245" width="60" height="20" as="geometry" />
        </mxCell>
      </root>
    </mxGraphModel>
  </diagram>
</mxfile>
